<?xml version="1.0" encoding="utf-8"?>
<!-- Generator: Adobe Illustrator 17.1.0, SVG Export Plug-In . SVG Version: 6.00 Build 0)  -->
<!DOCTYPE svg PUBLIC "-//W3C//DTD SVG 1.1//EN" "http://www.w3.org/Graphics/SVG/1.1/DTD/svg11.dtd">
<svg version="1.1" id="Capa_1" xmlns="http://www.w3.org/2000/svg" xmlns:xlink="http://www.w3.org/1999/xlink" x="0px" y="0px"
	 width="932.8px" height="567.9px" viewBox="0 0 932.8 567.9" enable-background="new 0 0 932.8 567.9" xml:space="preserve">
<polygon fill="#B623BC" points="278.9,521.7 616.6,521.7 653.8,458.4 316.2,458.4 "/>
<rect x="70.5" y="137.6" fill="#FFFFFF" width="93.2" height="30"/>
<rect x="286.8" y="137.6" fill="#FFFFFF" width="30" height="30"/>
<polygon fill="#FFFFFF" points="125.8,111.9 125.8,84.8 70.5,84.8 70.5,111.9 70.5,113.3 125.8,113.3 "/>
<rect x="70.5" y="29.6" fill="#FFFFFF" width="93.2" height="30"/>
<rect x="286.8" y="29.6" fill="#FFFFFF" width="93.4" height="30"/>
<rect x="286.8" y="84.8" fill="#FFFFFF" width="57.1" height="27.1"/>
<path fill="#FFFFFF" d="M577.2,112.4c31.9,0.2,45.9-19.2,45.9-42.1c0-20.4-15.9-40.6-43.2-40.7h-46.9v28.8h45.6
	c4.7,0,15.4,0.9,15.2,12.4c0,10.7-8.6,12.9-14.2,12.9h-46.6v28.8l58.3,55.1h43.7l-57.8-55.1V112.4z"/>
<rect x="645.9" y="29.6" fill="#FFFFFF" width="31.2" height="138.1"/>
<polygon fill="#FFFFFF" points="762.3,26.3 689.1,167.6 723.8,167.6 762.3,91.7 804.1,167.6 838.9,167.5 "/>
<polygon fill="#FFFFFF" points="391.3,24.9 456,24.9 441.3,12.4 376.5,12.4 "/>
<polygon fill="#FFFFFF" points="435.8,7.7 426.7,0 362,0 371,7.7 "/>
<path fill="#FFFFFF" d="M238.4,126.7c0,8.5-6.3,14.5-14.8,14.5c-8.4,0-14.8-6.9-14.8-14V29.9h-29.5v99.3c0,21.9,20.1,41.6,44.5,41.6
	c24.5,0,44-19.7,44-41.6V29.9h-29.5V126.7z"/>
<path fill="#FFFFFF" d="M462.7,30.5L462.7,30.5c-1.8-0.3-3.5-0.5-5.3-0.7c-0.3,0-0.5,0-0.8-0.1c-1.8-0.1-3.5-0.2-5.3-0.2h0v0h-54.5
	L411.3,42c-18.4,12.7-30.5,33.9-30.5,58c0,38.9,31.5,70.4,70.4,70.4s70.4-31.5,70.4-70.4C521.6,65,496.1,36,462.7,30.5 M451.2,139.9
	c-22.1,0-39.9-17.9-39.9-39.9c0-22.1,17.9-39.9,39.9-39.9c22.1,0,39.9,17.9,39.9,39.9C491.2,122,473.3,139.9,451.2,139.9"/>
<path fill="#23CFF0" d="M814.3,207.8v0.4h0L814.3,207.8z"/>
<g>
	<path fill="#FFFFFF" d="M12.9,384l6.8,0L32,434.9l-7.2,0l-1.3-5.6l-14.9-0.1l-1.4,5.6l-7.1,0L12.9,384z M21.8,422.3l-5.6-25.2
		l-5.8,25.2L21.8,422.3z"/>
	<path fill="#FFFFFF" d="M76.2,440.3l-4-6c-3.4,1.6-7.4,2.5-11.7,2.5c-14.9-0.1-27-12.3-26.9-27.3c0.1-14.9,12.3-27,27.2-26.9
		c15,0.1,27.2,12.3,27.1,27.2c0,8.4-3.9,15.9-9.8,20.9l4,6L76.2,440.3z M81,409.7c0-11.1-9-20.2-20.2-20.2c-11.1,0-20.2,9-20.2,20.1
		c-0.1,11.2,9,20.3,20.1,20.4C71.8,429.9,80.9,420.9,81,409.7z"/>
	<path fill="#FFFFFF" d="M94.6,384.4l7,0l-0.1,32.6c0,7.9,3,11.9,6.2,12c3.3,0,6.7-3.9,6.7-11.9l0.1-32.6l6.9,0l-0.1,32.6
		c-0.1,12.7-6.9,18.9-13.7,18.9c-6.7,0-13.3-6.4-13.2-19L94.6,384.4z"/>
	<path fill="#FFFFFF" d="M130.6,384.5l22.8,0.1l0,7l-15.8-0.1l-0.1,14.9l10.9,0l0,6.9l-10.9,0l-0.1,15.1l15.8,0.1l0,6.9l-22.8-0.1
		L130.6,384.5z"/>
	<path fill="#FFFFFF" d="M162.6,424.4c3.6,3.5,6.4,4.7,8.8,4.8c3.6,0,5.5-3.4,5.5-6.7c0-11.1-18.7-9.2-18.7-25
		c0-7.5,5.1-13.4,12.3-13.4c3.7,0,7.9,1.7,12.4,5.6l-4.7,5.2c-3.1-2.7-5.8-3.9-7.8-3.9c-3.5,0-5.2,3-5.2,6.5
		c0,10.8,18.7,8.7,18.6,25c0,7-5,13.7-12.5,13.7c-3.9,0-8.6-1.9-13.5-6.7L162.6,424.4z"/>
	<path fill="#FFFFFF" d="M197.8,391.8l-9.9,0l0-7l26.9,0.1l0,7l-9.9,0l-0.2,43.9l-7,0L197.8,391.8z"/>
	<path fill="#FFFFFF" d="M234.9,385l22.8,0.1l0,7l-15.8-0.1l-0.1,14.9l10.9,0l0,6.9l-10.9,0l-0.1,15.1l15.8,0.1l0,6.9l-22.8-0.1
		L234.9,385z"/>
	<path fill="#FFFFFF" d="M266.9,424.9c3.6,3.5,6.4,4.7,8.8,4.8c3.6,0,5.5-3.4,5.5-6.7c0-11.1-18.7-9.2-18.7-25
		c0-7.5,5.1-13.4,12.3-13.4c3.7,0,7.9,1.7,12.4,5.6l-4.7,5.2c-3.1-2.7-5.8-3.9-7.8-3.9c-3.5,0-5.2,3-5.2,6.5
		c0,10.8,18.7,8.7,18.6,25c0,7-5,13.7-12.5,13.7c-3.9,0-8.6-1.9-13.5-6.7L266.9,424.9z"/>
	<path fill="#FFFFFF" d="M302,392.3l-9.9,0l0-7l26.9,0.1l0,7l-9.9,0l-0.2,43.9l-7,0L302,392.3z"/>
	<path fill="#FFFFFF" d="M325.8,385.4l7.1,0l-0.2,50.9l-7.1,0L325.8,385.4z"/>
	<path fill="#FFFFFF" d="M342.1,385.5l7,0l-0.1,32.6c0,7.9,3,11.9,6.2,12c3.3,0,6.7-3.9,6.7-11.9l0.1-32.6l6.9,0l-0.1,32.6
		c-0.1,12.7-6.9,18.9-13.7,18.9c-6.7,0-13.3-6.4-13.2-19L342.1,385.5z"/>
	<path fill="#FFFFFF" d="M371.1,441.3c1.8-1.1,4.7-3.1,6-5c-2.4,0.1-4.5-1.7-4.5-4.4c0-2.9,2.2-5.3,5.2-5.3c3.6,0,5.3,3.4,5.3,7.2
		c0,5.3-4.3,9.1-8.8,12L371.1,441.3z"/>
	<path fill="#FFFFFF" d="M398,385.7l7.3,0l8.2,38.2l8.7-38.1l7.1,0l-11.7,50.8l-8.1,0L398,385.7z"/>
	<path fill="#FFFFFF" d="M434.7,385.9l7.1,0l-0.2,50.9l-7.1,0L434.7,385.9z"/>
	<path fill="#FFFFFF" d="M451,385.9l7,0l-0.1,32.6c0,7.9,3,11.9,6.2,12c3.3,0,6.7-3.9,6.7-11.9L471,386l6.9,0l-0.1,32.6
		c-0.1,12.7-6.9,18.9-13.7,18.9c-6.7,0-13.3-6.4-13.2-19L451,385.9z"/>
	<path fill="#FFFFFF" d="M501.7,386.2l7,0l-0.2,43.9l15.9,0.1l0,6.9l-22.9-0.1L501.7,386.2z"/>
	<path fill="#FFFFFF" d="M539.8,386.3l6.8,0l12.3,50.9l-7.2,0l-1.3-5.6l-14.9-0.1l-1.4,5.6l-7.1,0L539.8,386.3z M548.7,424.7
		l-5.6-25.2l-5.8,25.2L548.7,424.7z"/>
	<path fill="#FFFFFF" d="M586.7,393.5l-9.9,0l0-7l26.9,0.1l0,7l-9.9,0l-0.2,43.9l-7,0L586.7,393.5z"/>
	<path fill="#FFFFFF" d="M610.6,386.7l22.8,0.1l0,7l-15.8-0.1l-0.1,14.9l10.9,0l0,6.9l-10.9,0l-0.1,15.1l15.8,0.1l0,6.9l-22.8-0.1
		L610.6,386.7z"/>
	<path fill="#FFFFFF" d="M636.9,386.8l7.3,0l8.2,38.2l8.7-38.1l7.1,0l-11.7,50.8l-8.1,0L636.9,386.8z"/>
	<path fill="#FFFFFF" d="M677.2,387l6.8,0l12.3,50.9l-7.2,0l-1.3-5.6l-14.9-0.1l-1.4,5.6l-7.1,0L677.2,387z M686.1,425.3l-5.6-25.2
		l-5.8,25.2L686.1,425.3z"/>
	<path fill="#FFFFFF" d="M719.6,387.1l12.6,0.1c8.6,0,13.1,9.6,13.1,19.2s-4.4,19.1-13.2,19.1l-5.6,0l-0.1,12.6l-7,0L719.6,387.1z
		 M732,418.6c4.2,0,6.4-6,6.4-12.2c0-6.1-2.2-12.2-6.6-12.2l-5.2,0l-0.1,24.4L732,418.6z"/>
	<path fill="#FFFFFF" d="M758.4,387.3l6.8,0l12.3,50.9l-7.2,0l-1.3-5.6l-14.9-0.1l-1.4,5.6l-7.1,0L758.4,387.3z M767.3,425.6
		l-5.6-25.2l-5.8,25.2L767.3,425.6z"/>
	<path fill="#FFFFFF" d="M784.5,427.2c3.6,3.5,6.4,4.7,8.8,4.8c3.6,0,5.5-3.4,5.5-6.7c0-11.1-18.7-9.2-18.7-25
		c0-7.5,5.1-13.4,12.3-13.4c3.7,0,7.9,1.7,12.4,5.6l-4.7,5.2c-3.1-2.7-5.8-3.9-7.8-3.9c-3.5,0-5.2,3-5.2,6.5
		c0,10.8,18.7,8.7,18.6,25c0,7-5,13.7-12.5,13.7c-3.9,0-8.6-1.9-13.5-6.7L784.5,427.2z"/>
	<path fill="#FFFFFF" d="M814.5,427.3c3.6,3.5,6.4,4.7,8.8,4.8c3.6,0,5.5-3.4,5.5-6.7c0-11.1-18.7-9.2-18.7-25
		c0-7.5,5.1-13.4,12.3-13.4c3.7,0,7.9,1.7,12.4,5.6l-4.7,5.2c-3.1-2.7-5.8-3.9-7.8-3.9c-3.5,0-5.2,3-5.2,6.5
		c0,10.8,18.7,8.7,18.6,25c0,7-5,13.7-12.5,13.7c-3.9,0-8.6-1.9-13.5-6.7L814.5,427.3z"/>
	<path fill="#FFFFFF" d="M842.7,387.7l7.1,0l-0.2,50.9l-7.1,0L842.7,387.7z"/>
	<path fill="#FFFFFF" d="M856.5,413.1c0.1-14.9,12.3-27,27.2-26.9c15.1,0.1,27.2,12.3,27.1,27.2c-0.1,15.1-12.3,27.2-27.3,27.1
		C868.5,440.4,856.4,428.2,856.5,413.1z M903.8,413.3c0-11.1-9-20.2-20.2-20.2c-11.1,0-20.2,9-20.2,20.1c0,11.2,9,20.3,20.1,20.4
		C894.7,433.6,903.8,424.5,903.8,413.3z M886.8,370l5.7,4.2l-8.8,11.1l-4.9-3.6L886.8,370z"/>
</g>
<g>
	<path fill="#FFFFFF" d="M331.7,468.2l21.2,0.1l0,6.5l-14.7-0.1l-0.1,13.8l10.2,0l0,6.4l-10.2,0l-0.1,14.1l14.7,0.1l0,6.4l-21.2-0.1
		L331.7,468.2z"/>
	<path fill="#FFFFFF" d="M360.2,505.4c3.3,3.3,6,4.4,8.2,4.4c3.4,0,5.1-3.2,5.1-6.2c0-10.3-17.4-8.5-17.4-23.3
		c0-7,4.8-12.5,11.4-12.4c3.5,0,7.4,1.6,11.5,5.2l-4.3,4.8c-2.8-2.5-5.4-3.6-7.2-3.6c-3.3,0-4.9,2.8-4.9,6c0,10,17.4,8.1,17.3,23.3
		c0,6.5-4.6,12.7-11.6,12.7c-3.6,0-8-1.8-12.5-6.2L360.2,505.4z"/>
	<path fill="#FFFFFF" d="M392.2,475l-9.2,0l0-6.5l25,0.1l0,6.5l-9.2,0l-0.2,40.8l-6.5,0L392.2,475z"/>
	<path fill="#FFFFFF" d="M413.3,468.6l6.6,0l-0.2,47.3l-6.6,0L413.3,468.6z"/>
	<path fill="#FFFFFF" d="M427.2,468.7l6.5,0l-0.1,30.3c0,7.3,2.8,11.1,5.8,11.1c3.1,0,6.2-3.6,6.2-11.1l0.1-30.3l6.4,0l-0.1,30.3
		c-0.1,11.8-6.5,17.6-12.7,17.6c-6.2,0-12.3-6-12.3-17.7L427.2,468.7z"/>
	<path fill="#FFFFFF" d="M476.3,508.8c6.1-4.4,15-14,15.1-23.5c0-6.6-1.8-10.5-4.2-10.5c-2.7,0-4.5,4.2-4.9,10.7l-6.4-0.5
		c0.8-11.4,5.9-16.7,11.4-16.7c5.6,0,10.7,6.2,10.7,17.5c0,9.4-6.7,17.9-13.7,23.9l13.3,0.1l0,6.4l-21.2-0.1L476.3,508.8z"/>
	<path fill="#FFFFFF" d="M501.4,492.6c0.1-13.8,11.4-25.1,25.3-25.1c14,0.1,25.3,11.5,25.2,25.3c-0.1,14-11.4,25.3-25.4,25.2
		C512.6,517.9,501.3,506.6,501.4,492.6z M545.5,492.8c0-10.3-8.4-18.8-18.8-18.8c-10.3,0-18.8,8.4-18.8,18.7
		c0,10.4,8.4,18.9,18.7,19C536.9,511.6,545.4,503.2,545.5,492.8z"/>
	<path fill="#FFFFFF" d="M556,509.2c6.1-4.4,15-14,15.1-23.5c0-6.6-1.8-10.5-4.2-10.5c-2.7,0-4.5,4.2-4.9,10.7l-6.4-0.5
		c0.8-11.4,5.9-16.7,11.4-16.7c5.6,0,10.7,6.2,10.7,17.5c0,9.4-6.7,17.9-13.7,23.9l13.3,0.1l0,6.4l-21.2-0.1L556,509.2z"/>
	<path fill="#FFFFFF" d="M588.3,503.1c0.5,3.5,2.2,7.7,4.8,7.7c3.1,0,4.9-3.6,5-7.2c0-3.6-1.7-7.3-4.8-7.3l-3.1,0l0-6.4l3.1,0
		c2.7,0,4.7-3.2,4.8-7.2c0-3.9-2-7.3-4.8-7.3c-1.6,0-4.1,2.6-4.9,7.2l-6.4-1.2c1.8-9.4,7.2-12.5,11.3-12.4c6.7,0,11.3,6.3,11.2,13.8
		c0,4.1-1.5,7.8-4,10.3c2.6,2.4,4.2,6,4.1,10.7c0,8-5.2,13.7-11.5,13.7c-3.6,0-9.4-2-11.2-13.1L588.3,503.1z"/>
</g>
<g>
	<path fill="#FFFFFF" d="M334.6,558.7h-11.2v-25.5h9.9c1.7,0,3.2,0.2,4.5,0.6c1.3,0.4,2.2,1,2.8,1.7c1.1,1.3,1.7,2.8,1.7,4.5
		c0,2-0.6,3.5-1.9,4.5c-0.4,0.3-0.7,0.6-0.9,0.6c-0.2,0.1-0.5,0.2-0.9,0.4c1.6,0.3,2.8,1.1,3.8,2.1c0.9,1.1,1.4,2.4,1.4,4
		c0,1.8-0.6,3.3-1.8,4.7C340.6,558,338.1,558.7,334.6,558.7z M329.1,543.5h2.7c1.6,0,2.8-0.2,3.5-0.5c0.8-0.3,1.2-1.1,1.2-2.2
		s-0.4-1.9-1.1-2.2c-0.7-0.4-1.9-0.5-3.6-0.5h-2.7V543.5z M329.1,553.9h3.9c1.6,0,2.9-0.2,3.7-0.6c0.8-0.4,1.2-1.2,1.2-2.4
		s-0.4-2-1.3-2.3c-0.9-0.4-2.2-0.6-4.1-0.6h-3.4V553.9z"/>
	<path fill="#FFFFFF" d="M359.6,558.7h-5.7v-10.1l-8.8-15.5h6.2l5.5,9.5l5.5-9.5h6.2l-8.8,15.5V558.7z"/>
	<path fill="#FFFFFF" d="M400.7,533.2v5.1H388v5.3h11.4v4.9H388v5.3h13.1v5h-18.8v-25.5H400.7z"/>
	<path fill="#FFFFFF" d="M406.9,558.7v-25.5h5.7v20.5h10.9v5.1H406.9z"/>
	<path fill="#FFFFFF" d="M450.5,553.7c2.8,0,5.1-1.1,6.9-3.3l3.7,3.8c-2.9,3.3-6.3,4.9-10.3,4.9s-7.2-1.2-9.7-3.7
		c-2.5-2.5-3.8-5.6-3.8-9.4c0-3.8,1.3-7,3.9-9.5c2.6-2.5,5.8-3.8,9.5-3.8c4.2,0,7.7,1.6,10.5,4.8l-3.5,4c-1.8-2.2-4-3.4-6.7-3.4
		c-2.1,0-4,0.7-5.5,2.1c-1.5,1.4-2.3,3.3-2.3,5.7c0,2.4,0.7,4.3,2.2,5.7C446.7,553,448.5,553.7,450.5,553.7z"/>
	<path fill="#FFFFFF" d="M487.2,555.2c-2.6,2.5-5.8,3.8-9.5,3.8c-3.8,0-7-1.3-9.5-3.8c-2.6-2.5-3.9-5.7-3.9-9.4
		c0-3.8,1.3-6.9,3.9-9.4c2.6-2.5,5.8-3.8,9.5-3.8c3.8,0,7,1.3,9.5,3.8c2.6,2.5,3.9,5.7,3.9,9.4C491.1,549.6,489.8,552.7,487.2,555.2
		z M485.3,545.8c0-2.3-0.7-4.2-2.2-5.8s-3.3-2.4-5.4-2.4s-3.9,0.8-5.4,2.4s-2.2,3.6-2.2,5.8c0,2.3,0.7,4.2,2.2,5.8s3.3,2.4,5.4,2.4
		s3.9-0.8,5.4-2.4S485.3,548.1,485.3,545.8z"/>
	<path fill="#FFFFFF" d="M496.7,558.7v-25.5h5.7v20.5h10.9v5.1H496.7z"/>
	<path fill="#FFFFFF" d="M518.1,558.7v-25.5h5.7v20.5h10.9v5.1H518.1z"/>
	<path fill="#FFFFFF" d="M558.1,533.2v5.1h-12.7v5.3h11.4v4.9h-11.4v5.3h13.1v5h-18.8v-25.5H558.1z"/>
	<path fill="#FFFFFF" d="M564.3,558.7v-25.5h5.7v20.5h10.9v5.1H564.3z"/>
	<path fill="#FFFFFF" d="M585.8,558.7v-25.5h5.7v20.5h10.9v5.1H585.8z"/>
</g>
<g>
	<g opacity="0.6">
		<path fill="#E226DC" d="M702.8,357.2c-11.8,0.4-23-4-31.6-12.1c-8.7-8.1-15.5-19-15-39.9l0-95.4H687l0,101.9
			c0.5,8.5,7.1,14.6,14.5,14.6c8.5-0.2,16.6-5.6,16.4-15.2l0-101.4h30.9l0,103.9C747,338,726.4,357,702.8,357.2"/>
	</g>
	<g opacity="0.6">
		<path fill="#23CFF0" d="M814.3,207.8l-0.2,29.3c-8.3,0-15.7,3.8-15.9,14.1c0,7.8,7.6,14.8,15.2,14.8c21-0.2,44.8,17.2,44.8,44.6
			c0,27.8-23.3,44.5-47.9,44.1l-0.2-31.3c9,0.7,16.6-4.5,16.4-13.6c0-10.8-7.6-14.6-15.2-14.6c-26.2,0.2-43.7-23-43.7-44.6
			c0.2-29.1,23.7-42.5,46.6-42.5V207.8z"/>
	</g>
	<g opacity="0.6">
		<path fill="#741BD8" d="M533,210l56,0c27.3,0.4,46.1,19.4,45.7,45.7c-0.2,26.4-24,42.6-46.3,42.3l-22.1,0.2l-0.2,58.2l-33.1,0
			l0-88.9l56.9,0c4.8,0,13.5-2.6,13.7-13.5c0.2-9.9-8.2-13.5-16.7-13.4l-54,0V210z"/>
	</g>
	<g opacity="0.6">
		<path fill="#E226DC" d="M102.4,281.7c0-24.3,19.8-44.3,44.1-44.3c12.1,0,23,5,31,12.9l15.2-28.8c-12.8-9.9-28.8-15.8-46.2-15.8
			c-41.7,0-75.8,34-75.8,75.9c0,41.7,34,75.6,75.8,75.6h0.5v-31.5h-0.5C122.2,325.8,102.4,305.9,102.4,281.7"/>
	</g>
	<g opacity="0.6">
		<polygon fill="#741BD8" points="165.2,356.8 242.7,207.1 323.8,356.6 286.9,356.8 242.7,276.4 201.9,356.8 		"/>
	</g>
	<g opacity="0.6">
		<polygon fill="#23CFF0" points="334.3,209.6 374.8,209.6 420.7,313.8 466.8,209.6 507.1,209.6 507.1,356.8 475.3,356.8 
			475.3,263.4 435,356.8 406.5,356.8 366.2,264.4 366.2,356.8 334.3,356.8 		"/>
	</g>
</g>
<path fill="#E226DC" d="M748.9,209.7l0,103.9c-1.8,24.4-22.4,43.4-46.1,43.6c-0.5,0-0.9,0-1.4,0c-11.3,0-21.9-4.3-30.3-12.1
	c-8.7-8.1-15.5-19-15-39.9l0-95.4H687l0,101.9c0.5,8.5,7,14.6,14.5,14.6c8.5-0.2,16.6-5.6,16.4-15.2l0-101.4H748.9z M748.9,207
	L748.9,207h-30.9c-0.7,0-1.4,0.3-1.9,0.8c-0.5,0.5-0.8,1.2-0.8,1.9l0,101.4c0.2,8-6.8,12.3-13.8,12.5c-6.1,0-11.2-5.3-11.7-12
	l0-101.9c0-1.5-1.2-2.7-2.7-2.7h-30.9c-1.5,0-2.7,1.2-2.7,2.7l0,95.4c-0.6,23.4,8.2,34.7,15.9,41.9c8.8,8.3,20.3,12.9,32.1,12.9
	c0.5,0,1,0,1.4,0c25.4-0.2,46.8-20.4,48.7-46.1c0-0.1,0-0.1,0-0.2l0-103.9C751.5,208.2,750.3,207,748.9,207"/>
<path fill="#23CFF0" d="M814.3,207.8v0.4h0L814.3,207.8z M814.3,208.2l-0.2,28.9c-8.3,0-15.7,3.8-15.9,14.1
	c0,7.8,7.6,14.8,15.2,14.8c0.1,0,0.2,0,0.3,0c20.9,0,44.5,17.3,44.5,44.6c0,27.5-22.8,44.1-47.1,44.1c-0.3,0-0.5,0-0.8,0l-0.2-31.3
	c0.6,0,1.1,0.1,1.6,0.1c8.3,0,15-5.1,14.8-13.6c0-10.8-7.6-14.6-15.2-14.6h0c-0.1,0-0.2,0-0.3,0c-26,0-43.4-23-43.4-44.6
	C767.8,221.6,791.3,208.2,814.3,208.2 M814.3,205.2c-0.5,0-1,0.1-1.4,0.4c-23.2,0.5-47.8,14.7-48,45.1c0,22.9,18.5,47.4,46.1,47.4
	h0.3c4.7,0,12.5,1.6,12.5,12c0.1,3-0.9,5.5-2.8,7.4c-2.2,2.3-5.5,3.5-9.4,3.5c-0.5,0-0.9,0-1.4-0.1c-0.1,0-0.1,0-0.2,0
	c-0.7,0-1.3,0.3-1.8,0.7c-0.6,0.5-0.9,1.2-0.9,2l0.2,31.3c0,1.5,1.2,2.7,2.7,2.7l0.8,0c13,0,25.2-4.4,34.4-12.4
	c9.9-8.6,15.4-20.8,15.4-34.4c0-13.3-5.4-25.6-15.3-34.6c-8.9-8.1-20.6-12.8-31.9-12.8h-0.3c-6.3,0-12.5-6-12.5-12.1
	c0.2-9.4,7.3-11.4,13.2-11.4c1.5,0,2.7-1.2,2.7-2.7l0.2-28.9l0-0.4C817,206.4,815.8,205.2,814.3,205.2L814.3,205.2z M814.3,210.9
	L814.3,210.9L814.3,210.9z"/>
<path fill="none" stroke="#741BD8" stroke-width="2.6903" stroke-miterlimit="10" d="M533,210l56,0c27.3,0.4,46.1,19.4,45.7,45.7
	c-0.2,26.4-24,42.6-46.3,42.3l-22.1,0.2l-0.2,58.2l-33.1,0l0-88.9l56.9,0c4.8,0,13.5-2.6,13.7-13.5c0.2-9.9-8.2-13.5-16.7-13.4
	l-54,0V210z"/>
<path fill="#E226DC" d="M146.5,205.8c17.4,0,33.4,5.9,46.2,15.8l-15.2,28.8c-8-7.9-18.9-12.9-31-12.9c-24.3,0-44.1,19.9-44.1,44.3
	c0,24.2,19.8,44.1,44.1,44.1h0.5v31.5h-0.5h0c-41.7,0-75.8-33.9-75.8-75.6C70.8,239.8,104.8,205.8,146.5,205.8L146.5,205.8z
	 M146.5,203.1L146.5,203.1c-43.3,0-78.4,35.3-78.4,78.6c0,43.2,35.2,78.3,78.4,78.3h0.6c0.7,0,1.4-0.3,1.9-0.8
	c0.5-0.5,0.8-1.2,0.8-1.9v-31.5c0-0.7-0.3-1.4-0.8-1.9c-0.5-0.5-1.2-0.8-1.9-0.8h-0.5c-22.8,0-41.4-18.6-41.4-41.4
	c0-11.1,4.3-21.5,12.1-29.4c7.8-7.9,18.2-12.2,29.3-12.2c10.8,0,21.2,4.3,29.1,12.1c0.5,0.5,1.2,0.8,1.9,0.8c0.1,0,0.3,0,0.4,0
	c0.8-0.1,1.6-0.6,2-1.4l15.2-28.8c0.6-1.2,0.3-2.6-0.7-3.4C180.6,208.7,164,203.1,146.5,203.1"/>
<polygon fill="none" stroke="#741BD8" stroke-width="2.6903" stroke-miterlimit="10" points="165.2,356.8 242.7,207.1 323.8,356.6 
	286.9,356.8 242.7,276.4 201.9,356.8 "/>
<path fill="#23CFF0" d="M507.1,209.6v147.1h-31.8v-93.4L435,356.8h-28.5l-40.3-92.4v92.4h-31.8V209.6h40.5l45.9,104.2l46.1-104.2
	H507.1z M507.1,207h-40.3c-1.1,0-2,0.6-2.5,1.6l-43.6,98.6l-43.4-98.6c-0.4-1-1.4-1.6-2.5-1.6h-40.5c-1.5,0-2.7,1.2-2.7,2.7v147.1
	c0,1.5,1.2,2.7,2.7,2.7h31.8c1.5,0,2.7-1.2,2.7-2.7v-79.5l35.1,80.6c0.4,1,1.4,1.6,2.5,1.6H435c1.1,0,2-0.6,2.5-1.6l35.1-81.5v80.4
	c0,1.5,1.2,2.7,2.7,2.7h31.8c1.5,0,2.7-1.2,2.7-2.7V209.6C509.8,208.2,508.6,207,507.1,207"/>
</svg>
