
<svg width="188px" height="86px" viewBox="0 0 188 86" version="1.1" xmlns="http://www.w3.org/2000/svg" xmlns:xlink="http://www.w3.org/1999/xlink">
    <g id="Page-1" stroke="none" stroke-width="1" fill="none" fill-rule="evenodd">
        <g id="anotaciones" transform="translate(-783.000000, -3124.000000)">
            <g id="Group" transform="translate(783.320000, 3124.704100)">
                <path d="M149.8972,84.6822 C147.1112,84.7682 144.4542,83.7392 142.3972,81.8112 C140.3392,79.8822 138.7112,77.3112 138.8392,72.3392 L138.8382,49.7102 L146.1672,49.7092 L146.1682,73.8822 C146.2972,75.8962 147.8392,77.3532 149.5972,77.3532 C151.6112,77.3102 153.5402,76.0242 153.4972,73.7532 L153.4962,49.7092 L160.8252,49.7092 L160.8262,74.3532 C160.3972,80.1392 155.5112,84.6392 149.8972,84.6822" id="Fill-83" fill="#FF21E0"></path>
                <path d="M176.3384,49.2799 L176.2954,56.2229 C174.3244,56.2229 172.5674,57.1229 172.5244,59.5659 C172.5244,61.4089 174.3244,63.0809 176.1244,63.0799 C181.0964,63.0369 186.7534,67.1519 186.7544,73.6659 C186.7544,80.2659 181.2254,84.2099 175.3964,84.1239 L175.3534,76.7099 C177.4964,76.8809 179.2964,75.6379 179.2534,73.4949 C179.2534,70.9229 177.4534,70.0229 175.6534,70.0239 C169.4394,70.0669 165.2814,64.5809 165.2814,59.4379 C165.3234,52.5379 170.8954,49.3659 176.3384,49.3659 L176.3384,49.2799 Z" id="Fill-85" fill="#00CFF1"></path>
                <path d="M109.6511,49.7931 L122.9271,49.7921 C129.3911,49.8791 133.8601,54.3911 133.7741,60.6381 C133.7311,66.8861 128.0911,70.7471 122.7981,70.6611 L117.5481,70.7041 L117.5051,84.5011 L109.6521,84.5011 L109.6511,63.4161 L123.1441,63.4161 C124.2721,63.4151 126.3551,62.8081 126.3981,60.2051 C126.4421,57.8621 124.4461,56.9941 122.4501,57.0381 L109.6511,57.0381 L109.6511,49.7931 Z" id="Fill-87" fill="#8714DC"></path>
                <path d="M7.5568,66.7936 C7.5568,61.0236 12.2418,56.2946 18.0118,56.2936 C20.8858,56.2936 23.4618,57.4826 25.3638,59.3536 L28.9708,52.5356 C25.9388,50.1866 22.1398,48.7876 18.0118,48.7885995 C8.1198,48.7885995 0.0508,56.8586 0.0508,66.7936 C0.0518,76.6856 8.1218,84.7116 18.0138,84.7116 L18.1438,84.7116 L18.1428,77.2496 L18.0128,77.2496 C12.2428,77.2496 7.5568,72.5206 7.5568,66.7936" id="Fill-89" fill="#FF21E0"></path>
                <polygon id="Fill-91" fill="#8714DC" points="22.4348 84.5926 40.8088 49.1026 60.0488 84.5496 51.2948 84.5926 40.8088 65.5256 31.1448 84.5926"></polygon>
                <polygon id="Fill-93" fill="#00CFF1" points="62.5449 49.7055 72.1489 49.7055 83.0269 74.4005 93.9529 49.7055 103.5079 49.7055 103.5079 84.5925 95.9619 84.5925 95.9619 62.4455 86.4069 84.5925 79.6459 84.5925 70.0909 62.6905 70.0909 84.5925 62.5449 84.5925"></polygon>
                <polygon id="Fill-95" fill="#FFFFFF" points="0 39.7489 22.1 39.7489 22.1 32.6279 0 32.6279"></polygon>
                <polygon id="Fill-97" fill="#FFFFFF" points="51.271 39.7479 58.391 39.7479 58.391 32.6279 51.271 32.6279"></polygon>
                <polygon id="Fill-98" fill="#FFFFFF" points="13.0966 26.5302 13.0966 20.1052 0.0006 20.1052 0.0006 26.5302 0.0006 26.8572 13.0966 26.8572"></polygon>
                <polygon id="Fill-99" fill="#FFFFFF" points="0 14.1299 22.1 14.1299 22.1 7.0089 0 7.0089"></polygon>
                <polygon id="Fill-100" fill="#FFFFFF" points="51.271 14.1299 73.412 14.1299 73.412 7.0089 51.271 7.0089"></polygon>
                <polygon id="Fill-101" fill="#FFFFFF" points="51.271 26.5309 64.818 26.5309 64.818 20.1059 51.271 20.1059"></polygon>
                <path d="M120.1362,26.6529 C127.7072,26.6939 131.0222,22.1099 131.0222,16.6669 C131.0222,11.8379 127.2572,7.0499 120.7912,7.0089 L109.6592,7.0089 L109.6592,13.8429 L120.4632,13.8429 C121.5682,13.8429 124.1062,14.0479 124.0652,16.7899 C124.0652,19.3269 122.0182,19.8589 120.7092,19.8589 L109.6592,19.8589 L109.6592,26.6939 L123.4922,39.7489 L133.8462,39.7489 L120.1362,26.6939 L120.1362,26.6529 Z" id="Fill-102" fill="#FFFFFF"></path>
                <polygon id="Fill-103" fill="#FFFFFF" points="136.424 39.7489 143.832 39.7489 143.832 7.0079 136.424 7.0079"></polygon>
                <polygon id="Fill-104" fill="#FFFFFF" points="164.0079 6.231 146.6559 39.749 154.8819 39.749 164.0079 21.742 173.9119 39.749 182.1799 39.708"></polygon>
                <polygon id="Fill-105" fill="#FFFFFF" points="76.0427 5.9109 91.3987 5.9109 87.8947 2.9299 72.5387 2.9299"></polygon>
                <polygon id="Fill-106" fill="#FFFFFF" points="86.6049 1.832 84.4519 -4.54747351e-13 69.0959 -4.54747351e-13 71.2489 1.832"></polygon>
                <path d="M39.7983,30.0496 C39.7983,32.0596 38.2963,33.4876 36.2993,33.4876 C34.3023,33.4876 32.8003,31.8556 32.8003,30.1726 L32.8003,7.0906 L25.8013,7.0906 L25.8013,30.6326 C25.8013,35.8216 30.5573,40.4856 36.3603,40.4856 C42.1633,40.4856 46.7963,35.8216 46.7963,30.6226 L46.7963,7.0906 L39.7983,7.0906 L39.7983,30.0496 Z" id="Fill-107" fill="#FFFFFF"></path>
                <path d="M90.26,33.1769 C85.031,33.1769 80.792,28.9369 80.792,23.7069 C80.792,18.4759 85.031,14.2359 90.26,14.2359 C95.489,14.2359 99.728,18.4759 99.728,23.7069 C99.728,28.9369 95.489,33.1769 90.26,33.1769 M92.97,7.2319 L92.97,7.2319 L92.97,7.2309 C92.554,7.1629 92.132,7.1119 91.705,7.0749 C91.646,7.0699 91.587,7.0659 91.528,7.0619 C91.11,7.0309 90.69,7.0089 90.265,7.0089 L90.26,7.0089 L77.333,7.0089 L80.792,9.9569 C76.429,12.9689 73.568,18.0019 73.568,23.7069 C73.568,32.9279 81.041,40.4039 90.26,40.4039 C99.479,40.4039 106.952,32.9279 106.952,23.7069 C106.952,15.4079 100.9,8.5269 92.97,7.2319" id="Fill-108" fill="#FFFFFF"></path>
            </g>
        </g>
    </g>
</svg>